<svg width="15" height="15" viewBox="0 0 15 15" fill="none" xmlns="http://www.w3.org/2000/svg">
<g id="003-whatsapp 1" clip-path="url(#clip0_56_117)">
<path id="Vector" d="M7.5 0C3.3585 0 0 3.3585 0 7.5C0 11.6415 3.3585 15 7.5 15C11.6415 15 15 11.6415 15 7.5C15 3.3585 11.6415 0 7.5 0ZM7.65896 11.8667C7.65884 11.8667 7.65907 11.8667 7.65896 11.8667H7.65713C6.90582 11.8664 6.16756 11.678 5.51193 11.3205L3.13236 11.9445L3.76923 9.6191C3.37635 8.93864 3.16967 8.16662 3.17001 7.37572C3.17104 4.9015 5.18475 2.8886 7.65896 2.8886C8.85967 2.88906 9.9868 3.35644 10.8342 4.20456C11.6818 5.0528 12.1482 6.18027 12.1478 7.37926C12.1468 9.85359 10.1328 11.8667 7.65896 11.8667Z" fill="white"/>
<path id="Vector_2" d="M7.66034 3.64648C5.60235 3.64648 3.92865 5.3195 3.92773 7.376C3.92751 8.08073 4.1248 8.76703 4.49822 9.36086L4.58691 9.50197L4.20995 10.8783L5.62203 10.508L5.75833 10.5888C6.33111 10.9287 6.98777 11.1085 7.65725 11.1087H7.65874C9.71513 11.1087 11.3888 9.43559 11.3897 7.37897C11.3901 6.38231 11.0024 5.44527 10.298 4.74031C9.59359 4.03535 8.65678 3.64683 7.66034 3.64648ZM9.85486 8.97955C9.76136 9.24139 9.31332 9.48045 9.09783 9.51273C8.90454 9.54156 8.66009 9.55358 8.39139 9.46832C8.22842 9.4166 8.01957 9.34759 7.75189 9.23212C6.62682 8.74643 5.892 7.61392 5.83592 7.53908C5.77985 7.46423 5.37793 6.93105 5.37793 6.3791C5.37793 5.82727 5.66769 5.55593 5.77046 5.44378C5.87334 5.33151 5.99488 5.30347 6.06961 5.30347C6.14434 5.30347 6.21918 5.30416 6.28453 5.30737C6.35342 5.3108 6.44589 5.28116 6.53687 5.49986C6.63037 5.72439 6.85468 6.27622 6.88271 6.3323C6.91075 6.38849 6.92941 6.45395 6.8921 6.52879C6.85468 6.60364 6.73039 6.76511 6.61172 6.91228C6.56194 6.97397 6.49705 7.0289 6.56251 7.14117C6.62785 7.25332 6.85307 7.62056 7.18644 7.91788C7.61491 8.29988 7.97631 8.41821 8.08846 8.4744C8.2005 8.53048 8.26596 8.5211 8.33142 8.44637C8.39677 8.37152 8.6118 8.11895 8.68653 8.00668C8.76126 7.89442 8.8361 7.91319 8.93887 7.95061C9.04176 7.98792 9.59313 8.25925 9.70528 8.31533C9.81744 8.37152 9.89217 8.39956 9.9202 8.44637C9.94836 8.49317 9.94836 8.71759 9.85486 8.97955Z" fill="white"/>
</g>
<defs>
<clipPath id="clip0_56_117">
<rect width="15" height="15" fill="white"/>
</clipPath>
</defs>
</svg>
