<svg width="24" height="24" viewBox="0 0 24 24" fill="none" xmlns="http://www.w3.org/2000/svg">
<g id="Iconsax/Linear/building3">
<path id="Vector" d="M2 21.9998H22M19.98 22.0098V17.9998M3 13.9998H15M9 21.9998V18.2498M15.01 21.9898L3.01 22.0098L3 7.06984C3 6.39984 3.34 5.77984 3.89 5.40984L7.89 2.73984C8.56 2.28984 9.44 2.28984 10.11 2.73984L14.11 5.40984C14.67 5.77984 15 6.39984 15 7.06984L15.01 21.9898ZM20 11.9998C18.9 11.9998 18 12.8998 18 13.9998V15.9998C18 17.0998 18.9 17.9998 20 17.9998C21.1 17.9998 22 17.0998 22 15.9998V13.9998C22 12.8998 21.1 11.9998 20 11.9998Z" stroke="black" stroke-width="1.5" stroke-miterlimit="10" stroke-linecap="round" stroke-linejoin="round"/>
<path id="Vector_2" d="M9 10.5C9.39782 10.5 9.77936 10.342 10.0607 10.0607C10.342 9.77936 10.5 9.39782 10.5 9C10.5 8.60218 10.342 8.22064 10.0607 7.93934C9.77936 7.65804 9.39782 7.5 9 7.5C8.60218 7.5 8.22064 7.65804 7.93934 7.93934C7.65804 8.22064 7.5 8.60218 7.5 9C7.5 9.39782 7.65804 9.77936 7.93934 10.0607C8.22064 10.342 8.60218 10.5 9 10.5Z" stroke="black" stroke-width="1.5" stroke-miterlimit="10" stroke-linecap="round" stroke-linejoin="round"/>
</g>
</svg>
