<svg width="26" height="31" viewBox="0 0 26 31" fill="none" xmlns="http://www.w3.org/2000/svg">
<g id="Iconsax/Bold/callcalling">
<path id="Vector" d="M18.9155 14.0833C18.6963 14.0833 18.486 13.9798 18.331 13.7954C18.176 13.611 18.0889 13.3609 18.0889 13.1001C18.0889 12.6277 17.6917 11.6444 17.0261 10.7889C16.3712 9.95888 15.652 9.47365 15.0508 9.47365C14.8316 9.47365 14.6213 9.37006 14.4663 9.18567C14.3113 9.00128 14.2242 8.75119 14.2242 8.49042C14.2242 7.95412 14.5999 7.50719 15.0508 7.50719C16.1243 7.50719 17.2515 8.19673 18.2392 9.43535C19.1624 10.5973 19.7529 12.0403 19.7529 13.0873C19.7529 13.6364 19.3771 14.0833 18.9155 14.0833ZM22.7909 14.0808C22.5717 14.0808 22.3615 13.9772 22.2064 13.7928C22.0514 13.6084 21.9643 13.3583 21.9643 13.0976C21.9643 8.56448 18.8618 4.88695 15.0615 4.88695C14.8423 4.88695 14.632 4.78336 14.477 4.59896C14.322 4.41457 14.2349 4.16448 14.2349 3.90371C14.2349 3.36741 14.5999 2.90771 15.0508 2.90771C19.7743 2.90771 23.6176 7.4791 23.6176 13.0976C23.6176 13.6339 23.2418 14.0808 22.7909 14.0808ZM11.8624 19.4439L9.87638 21.8062C9.45771 22.3042 8.79212 22.3042 8.36271 21.8189C8.24462 21.6785 8.12653 21.5508 8.00844 21.4103C6.92286 20.1104 5.92161 18.7146 5.0133 17.2348C4.133 15.7791 3.42447 14.3234 2.90918 12.8805C2.40462 11.4248 2.14697 10.0329 2.14697 8.70495C2.14697 7.83664 2.2758 7.00664 2.53344 6.24048C2.79109 5.46156 3.19903 4.74648 3.768 4.10802C4.45506 3.30356 5.20653 2.90771 6.00094 2.90771C6.30153 2.90771 6.60212 2.98433 6.8705 3.13756C7.14962 3.29079 7.39653 3.52064 7.58977 3.85264L10.0804 8.02818C10.2736 8.34741 10.4131 8.6411 10.5098 8.92202C10.6064 9.19018 10.6601 9.45833 10.6601 9.70095C10.6601 10.0074 10.5849 10.3139 10.4346 10.6076C10.2951 10.9013 10.0911 11.2077 9.83344 11.5142L9.01756 12.5229C8.89947 12.6634 8.8458 12.8294 8.8458 13.0337C8.8458 13.1359 8.85653 13.2253 8.878 13.3274C8.91021 13.4296 8.94241 13.5062 8.96389 13.5828C9.15712 14.0042 9.48991 14.5533 9.96227 15.2173C10.4454 15.8813 10.9606 16.558 11.5189 17.2348C11.6262 17.3625 11.7443 17.4902 11.8517 17.6179C12.2811 18.1159 12.2918 18.9331 11.8624 19.4439ZM23.5854 23.7599C23.5839 24.2418 23.4923 24.7172 23.317 25.1517C23.1345 25.6114 22.8983 26.0456 22.587 26.4542C22.0609 27.1437 21.4812 27.6417 20.8264 27.9609C20.8156 27.9609 20.8049 27.9737 20.7942 27.9737C20.1608 28.2802 19.4737 28.4462 18.733 28.4462C17.638 28.4462 16.4679 28.1397 15.2333 27.514C13.9987 26.8883 12.7642 26.0456 11.5404 24.9857C11.1217 24.6154 10.703 24.2451 10.3058 23.8493L13.8162 19.6737C14.1168 19.9419 14.3852 20.1462 14.6106 20.2866C14.6643 20.3122 14.7287 20.3505 14.8039 20.3888C14.8898 20.4271 14.9756 20.4399 15.0723 20.4399C15.2548 20.4399 15.3943 20.3633 15.5124 20.2228L16.3283 19.2651C16.5967 18.9459 16.8543 18.7033 17.1012 18.55C17.3482 18.3713 17.5951 18.2819 17.8634 18.2819C18.0674 18.2819 18.2821 18.3329 18.5183 18.4479C18.7545 18.5628 19.0014 18.7288 19.2698 18.9459L22.8232 21.9466C23.1023 22.1765 23.2955 22.4446 23.4136 22.7639C23.5209 23.0831 23.5854 23.4023 23.5854 23.7599Z" fill="white"/>
</g>
</svg>
