<svg width="26" height="32" viewBox="0 0 26 32" fill="none" xmlns="http://www.w3.org/2000/svg">
<g id="Iconsax/Bold/location">
<path id="Vector" d="M22.1373 11.4669C21.0101 5.5675 16.6838 2.9115 12.8835 2.9115H12.8728C9.08321 2.9115 4.74615 5.55473 3.61894 11.4541C2.36292 18.043 5.75527 23.6232 8.82556 27.1347C9.91382 28.3876 11.369 29.0882 12.8835 29.0884C14.3435 29.0884 15.8035 28.4372 16.9307 27.1347C20.001 23.6232 23.3934 18.0558 22.1373 11.4669ZM12.8835 17.8643C12.4394 17.8643 11.9997 17.7602 11.5894 17.5581C11.1791 17.3559 10.8064 17.0597 10.4923 16.6862C10.1783 16.3127 9.92924 15.8692 9.7593 15.3812C9.58935 14.8932 9.50189 14.3702 9.50189 13.842C9.50189 13.3137 9.58935 12.7907 9.7593 12.3027C9.92924 11.8147 10.1783 11.3713 10.4923 10.9978C10.8064 10.6243 11.1791 10.328 11.5894 10.1258C11.9997 9.92369 12.4394 9.81965 12.8835 9.81965C13.7804 9.81965 14.6405 10.2434 15.2747 10.9978C15.9088 11.7521 16.2651 12.7752 16.2651 13.842C16.2651 14.9087 15.9088 15.9318 15.2747 16.6862C14.6405 17.4405 13.7804 17.8643 12.8835 17.8643Z" fill="white"/>
</g>
</svg>
