<svg width="24" height="24" viewBox="0 0 24 24" fill="none" xmlns="http://www.w3.org/2000/svg">
<g id="Iconsax/Linear/python">
<path id="Vector" d="M7.6001 7.6001V3.9001C7.6001 3.1001 8.2001 2.4001 9.0001 2.2001C11.0001 1.9001 13.0001 1.9001 15.0001 2.2001C15.8001 2.3001 16.4001 3.0001 16.4001 3.9001V9.8001C16.4001 11.0001 15.4001 12.0001 14.2001 12.0001H9.8001C8.6001 12.0001 7.6001 13.0001 7.6001 14.2001V20.1001C7.6001 20.9001 8.2001 21.6001 9.0001 21.8001C11.0001 22.1001 13.0001 22.1001 15.0001 21.8001C15.8001 21.7001 16.4001 21.0001 16.4001 20.1001V16.4001" stroke="black" stroke-width="1.5" stroke-linecap="round" stroke-linejoin="round"/>
<path id="Vector_2" d="M16.4001 7.6001H20.1001C20.9001 7.6001 21.6001 8.2001 21.8001 9.0001C22.1001 11.0001 22.1001 13.0001 21.8001 15.0001C21.7001 15.8001 21.0001 16.4001 20.1001 16.4001H12.0001M12.0001 7.6001H3.9001C3.1001 7.6001 2.4001 8.2001 2.2001 9.0001C1.9001 11.0001 1.9001 13.0001 2.2001 15.0001C2.3001 15.8001 3.0001 16.4001 3.9001 16.4001H7.6001" stroke="black" stroke-width="1.5" stroke-linecap="round" stroke-linejoin="round"/>
</g>
</svg>
