<svg width="26" height="31" viewBox="0 0 26 31" fill="none" xmlns="http://www.w3.org/2000/svg">
<g id="vuesax/bold/sms">
<g id="vuesax/bold/sms_2">
<g id="sms">
<path id="Vector" d="M18.2499 4.46924H7.51462C4.29403 4.46924 2.14697 6.38462 2.14697 10.8539V19.7923C2.14697 24.2615 4.29403 26.1769 7.51462 26.1769H18.2499C21.4705 26.1769 23.6176 24.2615 23.6176 19.7923V10.8539C23.6176 6.38462 21.4705 4.46924 18.2499 4.46924ZM18.7545 12.2457L15.3943 15.438C14.6858 16.1148 13.784 16.4468 12.8823 16.4468C11.9805 16.4468 11.068 16.1148 10.3702 15.438L7.01006 12.2457C6.66653 11.9137 6.61285 11.3008 6.88124 10.8922C7.16036 10.4835 7.66491 10.4069 8.00844 10.7389L11.3686 13.9312C12.1845 14.7102 13.5693 14.7102 14.3852 13.9312L17.7454 10.7389C18.0889 10.4069 18.6042 10.4708 18.8726 10.8922C19.1517 11.3008 19.098 11.9137 18.7545 12.2457Z" fill="white"/>
</g>
</g>
</g>
</svg>
